<svg width="16" height="16" viewBox="0 0 16 16" fill="none" xmlns="http://www.w3.org/2000/svg">
<path d="M3.19995 7H7.79995V8H3.19995V7Z" fill="#343741"/>
<path d="M3.19995 3.19995H11.2V3.99995H3.19995V3.19995Z" fill="#343741"/>
<path d="M3.19995 5H10.8V6H3.19995V5Z" fill="#343741"/>
<path d="M3.19995 12H7.19995V12.8H3.19995V12Z" fill="#343741"/>
<path d="M15.8 12V11H14.7495C14.6851 10.687 14.5608 10.3894 14.3835 10.1235L15.1285 9.3785L14.4215 8.6715L13.6765 9.4165C13.4106 9.23926 13.113 9.11498 12.8 9.0505V8H11.8V9.0505C11.4871 9.11498 11.1895 9.23926 10.9235 9.4165L10.1785 8.6715L9.47155 9.3785L10.2165 10.1235C10.0393 10.3894 9.91503 10.687 9.85055 11H8.80005V12H9.85055C9.91503 12.313 10.0393 12.6106 10.2165 12.8765L9.47155 13.6215L10.1785 14.3285L10.9235 13.5835C11.1895 13.7607 11.4871 13.885 11.8 13.9495V15H12.8V13.9495C13.113 13.885 13.4106 13.7607 13.6765 13.5835L14.4215 14.3285L15.1285 13.6215L14.3835 12.8765C14.5608 12.6106 14.6851 12.313 14.7495 12H15.8ZM12.3 13C12.0034 13 11.7134 12.912 11.4667 12.7472C11.22 12.5824 11.0278 12.3481 10.9142 12.074C10.8007 11.7999 10.771 11.4983 10.8289 11.2074C10.8867 10.9164 11.0296 10.6491 11.2394 10.4393C11.4492 10.2296 11.7164 10.0867 12.0074 10.0288C12.2984 9.97094 12.6 10.0006 12.8741 10.1142C13.1482 10.2277 13.3824 10.42 13.5473 10.6666C13.7121 10.9133 13.8 11.2033 13.8 11.5C13.7997 11.8977 13.6415 12.279 13.3603 12.5602C13.0791 12.8414 12.6978 12.9996 12.3 13Z" fill="#343741"/>
<path d="M7.79995 15H2.19995C1.93482 14.9997 1.68062 14.8943 1.49314 14.7068C1.30566 14.5193 1.20022 14.2651 1.19995 14V2C1.20022 1.73486 1.30566 1.48066 1.49314 1.29319C1.68062 1.10571 1.93482 1.00026 2.19995 1H11.8C12.0651 1.00026 12.3193 1.10571 12.5068 1.29319C12.6942 1.48066 12.7997 1.73486 12.8 2V7H11.8V2H2.19995V14H7.79995V15Z" fill="#343741"/>
</svg>
