<svg width="16" height="16" viewBox="0 0 16 16" fill="none" xmlns="http://www.w3.org/2000/svg">
<path opacity="0.5" d="M2.32206 10.3505C2.22826 10.3552 2.13443 10.3416 2.0463 10.3106C1.95817 10.2797 1.87758 10.2319 1.80944 10.1703C1.7413 10.1087 1.68704 10.0345 1.64995 9.95225C1.61287 9.87001 1.59375 9.78144 1.59375 9.69193C1.59375 9.60243 1.61287 9.51386 1.64995 9.43162C1.68704 9.34938 1.7413 9.27519 1.80944 9.21358C1.87758 9.15197 1.95817 9.10421 2.0463 9.07323C2.13443 9.04225 2.22826 9.02869 2.32206 9.03337H7.61426C7.70807 9.02869 7.8019 9.04225 7.89003 9.07323C7.97816 9.10421 8.05875 9.15197 8.12689 9.21358C8.19503 9.27519 8.24929 9.34938 8.28637 9.43162C8.32346 9.51386 8.34258 9.60243 8.34258 9.69193C8.34258 9.78144 8.32346 9.87001 8.28637 9.95225C8.24929 10.0345 8.19503 10.1087 8.12689 10.1703C8.05875 10.2319 7.97816 10.2797 7.89003 10.3106C7.8019 10.3416 7.70807 10.3552 7.61426 10.3505H2.32206Z" fill="#1D1D1D"/>
<path d="M4.68523 10.3507C4.59043 10.3554 4.49561 10.3419 4.40655 10.3109C4.31748 10.2799 4.23604 10.2321 4.16718 10.1705C4.09832 10.1089 4.04349 10.0347 4.00602 9.9525C3.96854 9.87026 3.94922 9.78168 3.94922 9.69218C3.94922 9.60267 3.96854 9.5141 4.00602 9.43186C4.04349 9.34962 4.09832 9.27544 4.16718 9.21382C4.23604 9.15221 4.31748 9.10446 4.40655 9.07348C4.49561 9.0425 4.59043 9.02893 4.68523 9.03362H10.0352C10.2141 9.04246 10.3826 9.1157 10.506 9.23823C10.6293 9.36077 10.698 9.52325 10.698 9.69218C10.698 9.8611 10.6293 10.0236 10.506 10.1461C10.3826 10.2687 10.2141 10.3419 10.0352 10.3507H4.68523Z" fill="#1D1D1D"/>
<path opacity="0.5" d="M6.59904 2.91722C6.41816 2.90838 6.24782 2.83514 6.12314 2.71261C5.99846 2.59007 5.92896 2.42758 5.92896 2.25866C5.92896 2.08973 5.99846 1.92725 6.12314 1.80471C6.24782 1.68218 6.41816 1.60894 6.59904 1.6001H12.0077C12.1886 1.60894 12.3589 1.68218 12.4836 1.80471C12.6083 1.92725 12.6778 2.08973 12.6778 2.25866C12.6778 2.42758 12.6083 2.59007 12.4836 2.71261C12.3589 2.83514 12.1886 2.90838 12.0077 2.91722H6.59904Z" fill="#1D1D1D"/>
<path d="M8.9545 2.91722C8.77363 2.90838 8.60329 2.83514 8.47861 2.71261C8.35393 2.59007 8.28442 2.42758 8.28442 2.25866C8.28442 2.08973 8.35393 1.92725 8.47861 1.80471C8.60329 1.68218 8.77363 1.60894 8.9545 1.6001H14.3632C14.544 1.60894 14.7144 1.68218 14.8391 1.80471C14.9637 1.92725 15.0333 2.08973 15.0333 2.25866C15.0333 2.42758 14.9637 2.59007 14.8391 2.71261C14.7144 2.83514 14.544 2.90838 14.3632 2.91722H8.9545Z" fill="#1D1D1D"/>
<path opacity="0.5" d="M6.0122 14.0688C5.87288 14.06 5.74169 13.9868 5.64566 13.8642C5.54963 13.7417 5.49609 13.5792 5.49609 13.4103C5.49609 13.2413 5.54963 13.0789 5.64566 12.9563C5.74169 12.8338 5.87288 12.7605 6.0122 12.7517H13.3561C13.4954 12.7605 13.6266 12.8338 13.7226 12.9563C13.8186 13.0789 13.8722 13.2413 13.8722 13.4103C13.8722 13.5792 13.8186 13.7417 13.7226 13.8642C13.6266 13.9868 13.4954 14.06 13.3561 14.0688H6.0122Z" fill="#1D1D1D"/>
<path d="M8.03637 14.0688C7.89705 14.06 7.76585 13.9868 7.66983 13.8642C7.5738 13.7417 7.52026 13.5792 7.52026 13.4103C7.52026 13.2413 7.5738 13.0789 7.66983 12.9563C7.76585 12.8338 7.89705 12.7605 8.03637 12.7517H15.3802C15.5195 12.7605 15.6507 12.8338 15.7468 12.9563C15.8428 13.0789 15.8963 13.2413 15.8963 13.4103C15.8963 13.5792 15.8428 13.7417 15.7468 13.8642C15.6507 13.9868 15.5195 14.06 15.3802 14.0688H8.03637Z" fill="#1D1D1D"/>
<path opacity="0.5" d="M0.696226 6.6327C0.511575 6.6327 0.334488 6.56341 0.20392 6.44007C0.0733522 6.31674 0 6.14946 0 5.97504C0 5.80062 0.0733522 5.63334 0.20392 5.51001C0.334488 5.38667 0.511575 5.31738 0.696226 5.31738H9.44687C9.5383 5.31738 9.62883 5.33439 9.7133 5.36744C9.79777 5.40049 9.87452 5.44894 9.93917 5.51001C10.0038 5.57108 10.0551 5.64358 10.0901 5.72337C10.1251 5.80316 10.1431 5.88868 10.1431 5.97504C10.1431 6.06141 10.1251 6.14692 10.0901 6.22672C10.0551 6.30651 10.0038 6.37901 9.93917 6.44007C9.87452 6.50114 9.79777 6.54959 9.7133 6.58264C9.62883 6.61569 9.5383 6.6327 9.44687 6.6327H0.696226Z" fill="#1D1D1D"/>
<path d="M3.35323 6.6327C3.26176 6.6327 3.17119 6.61569 3.08669 6.58264C3.00219 6.54959 2.92541 6.50114 2.86074 6.44007C2.79606 6.37901 2.74476 6.30651 2.70975 6.22672C2.67475 6.14692 2.65674 6.06141 2.65674 5.97504C2.65674 5.88868 2.67475 5.80316 2.70975 5.72337C2.74476 5.64358 2.79606 5.57108 2.86074 5.51001C2.92541 5.44894 3.00219 5.40049 3.08669 5.36744C3.17119 5.33439 3.26176 5.31738 3.35323 5.31738H12.1033C12.2881 5.31738 12.4652 5.38667 12.5958 5.51001C12.7265 5.63334 12.7998 5.80062 12.7998 5.97504C12.7998 6.14946 12.7265 6.31674 12.5958 6.44007C12.4652 6.56341 12.2881 6.6327 12.1033 6.6327H3.35323Z" fill="#1D1D1D"/>
</svg>
