<svg id="图层_1" data-name="图层 1" xmlns="http://www.w3.org/2000/svg" viewBox="0 0 38 38"><defs><style>.cls-1{fill:#52bbff;}</style></defs><polygon class="cls-1" points="34.32 28.11 32.69 29.7 26.83 22.75 27.79 21.78 34.32 28.11"/><path class="cls-1" d="M28,32.41a18.7,18.7,0,0,1-2.6.83l-2.29-8.19a10.2,10.2,0,0,0,1.35-.59Z"/><path class="cls-1" d="M20.06,33.73a18.07,18.07,0,0,1-2.66-.33l1.29-7.83a11,11,0,0,0,1.52,0Z"/><path class="cls-1" d="M12.39,31.6a19.25,19.25,0,0,1-2.24-1.42l4.18-6.06a12,12,0,0,0,1.39.7Z"/><path class="cls-1" d="M6.41,26.39A14.64,14.64,0,0,1,5,24L11.1,21a7.93,7.93,0,0,0,.86,1.2Z"/><path class="cls-1" d="M3.72,18.81a14.87,14.87,0,0,1,.06-2.67l6.2.5a7.72,7.72,0,0,0,.11,1.52Z"/><path class="cls-1" d="M5.33,11.1A14.59,14.59,0,0,1,6.75,8.89l4.56,3.32a8.81,8.81,0,0,0-.72,1.4Z"/><path class="cls-1" d="M10.78,5.44a11.23,11.23,0,0,1,2.5-1l1.48,4.84a7.38,7.38,0,0,0-1.34.69Z"/><path class="cls-1" d="M18.54,4.27a10.71,10.71,0,0,1,2.5.79L19.36,9.22a6.91,6.91,0,0,0-1.55-.33Z"/><path class="cls-1" d="M25.15,8.19a9.27,9.27,0,0,1,1.37,2.3L23,12.12a5.23,5.23,0,0,0-.91-1.23Z"/><path class="cls-1" d="M27.09,15.66a9.16,9.16,0,0,1-.81,2.45l-3.05-1.38a5.6,5.6,0,0,0,.36-1.57Z"/><path class="cls-1" d="M22.77,21.82a7.39,7.39,0,0,1-2.49.79l-.45-2.74a4.36,4.36,0,0,0,1.45-.62Z"/><path class="cls-1" d="M15.39,21.48a7.46,7.46,0,0,1-1-.78,8,8,0,0,1-.84-1l1.77-1.31a8,8,0,0,0,.59.57,5.27,5.27,0,0,0,.7.46Z"/><path class="cls-1" d="M12.8,14.84A5.65,5.65,0,0,1,14,12.69l1.25,1.05a3.86,3.86,0,0,0-.7,1.56Z"/><path class="cls-1" d="M18.55,11.3a4.28,4.28,0,0,1,2.05,1.23l-.74.75a3.16,3.16,0,0,0-1.59-.77Z"/></svg>