<svg width="16" height="16" viewBox="0 0 16 16" fill="none" xmlns="http://www.w3.org/2000/svg">
<path d="M1 13H15V14H1V13Z" fill="#037ba0"/>
<path d="M12 11.5H10C9.73486 11.4997 9.48066 11.3943 9.29319 11.2068C9.10571 11.0193 9.00026 10.7651 9 10.5V7C9.00026 6.73486 9.10571 6.48066 9.29319 6.29319C9.48066 6.10571 9.73486 6.00026 10 6H12C12.2651 6.00026 12.5193 6.10571 12.7068 6.29319C12.8943 6.48066 12.9997 6.73486 13 7V10.5C12.9997 10.7651 12.8943 11.0193 12.7068 11.2068C12.5193 11.3943 12.2651 11.4997 12 11.5ZM10 7V10.5H12.0005L12 7H10Z" fill="#037ba0"/>
<path d="M6 11.5H4C3.73486 11.4997 3.48066 11.3943 3.29319 11.2068C3.10571 11.0193 3.00026 10.7651 3 10.5V3C3.00026 2.73486 3.10571 2.48066 3.29319 2.29319C3.48066 2.10571 3.73486 2.00026 4 2H6C6.26514 2.00026 6.51934 2.10571 6.70681 2.29319C6.89429 2.48066 6.99974 2.73486 7 3V10.5C6.99974 10.7651 6.89429 11.0193 6.70681 11.2068C6.51934 11.3943 6.26514 11.4997 6 11.5ZM4 3V10.5H6.0005L6 3H4Z" fill="#037ba0"/>
</svg>
