<svg width="16" height="16" viewBox="0 0 16 16" fill="none" xmlns="http://www.w3.org/2000/svg">
<g clip-path="url(#clip0_5413_9776)">
<path d="M14.1853 8.41389V8.00015V7.58096L15.2305 6.66638C15.4232 6.49655 15.5496 6.26408 15.5875 6.01005C15.6253 5.75602 15.5722 5.49678 15.4374 5.27816L14.1526 3.10057C14.0571 2.93521 13.9199 2.79787 13.7546 2.70232C13.5892 2.60677 13.4017 2.55636 13.2108 2.55617C13.0925 2.55526 12.9748 2.57365 12.8624 2.61061L11.5395 3.05702C11.3111 2.90524 11.0728 2.76884 10.8263 2.64872L10.5487 1.27683C10.4989 1.02619 10.3625 0.80105 10.1635 0.640813C9.96444 0.480576 9.71537 0.395455 9.45988 0.400351H6.9121C6.65661 0.395455 6.40754 0.480576 6.20849 0.640813C6.00944 0.80105 5.87309 1.02619 5.8233 1.27683L5.54566 2.64872C5.29738 2.76881 5.05732 2.90521 4.82705 3.05702L3.53139 2.58883C3.41777 2.55923 3.30011 2.5482 3.18297 2.55617C2.99204 2.55636 2.80451 2.60677 2.63921 2.70232C2.4739 2.79787 2.33663 2.93521 2.24116 3.10057L0.956382 5.27816C0.829312 5.49646 0.782094 5.75214 0.822813 6.00143C0.863533 6.25071 0.989657 6.47808 1.17959 6.6446L2.2085 7.58641V8.41934L1.17959 9.33393C0.984292 9.5016 0.854718 9.73304 0.813858 9.98718C0.772997 10.2413 0.823492 10.5017 0.956382 10.7221L2.24116 12.8997C2.33663 13.0651 2.4739 13.2024 2.63921 13.298C2.80451 13.3935 2.99204 13.4439 3.18297 13.4441C3.3013 13.445 3.41898 13.4267 3.53139 13.3897L4.85427 12.9433C5.08267 13.0951 5.32092 13.2315 5.56744 13.3516L5.84508 14.7235C5.89486 14.9741 6.03121 15.1993 6.23027 15.3595C6.42932 15.5197 6.67839 15.6048 6.93388 15.6H9.50344C9.75892 15.6048 10.008 15.5197 10.207 15.3595C10.4061 15.1993 10.5424 14.9741 10.5922 14.7235L10.8699 13.3516C11.1182 13.2315 11.3582 13.0951 11.5885 12.9433L12.9059 13.3897C13.0183 13.4267 13.136 13.445 13.2543 13.4441C13.4453 13.4439 13.6328 13.3935 13.7981 13.298C13.9634 13.2024 14.1007 13.0651 14.1961 12.8997L15.4374 10.7221C15.5644 10.5038 15.6117 10.2482 15.5709 9.99888C15.5302 9.74959 15.4041 9.52222 15.2142 9.3557L14.1853 8.41389ZM13.2108 12.3553L11.3435 11.7238C10.9064 12.0941 10.4068 12.3835 9.86818 12.5785L9.48166 14.5329H6.9121L6.52558 12.6003C5.99121 12.3997 5.49433 12.1108 5.0557 11.7456L3.18297 12.3553L1.89819 10.1777L3.37895 8.87119C3.27829 8.30766 3.27829 7.73075 3.37895 7.16722L1.89819 5.82256L3.18297 3.64496L5.05026 4.27647C5.48737 3.90622 5.98695 3.61679 6.52558 3.42176L6.9121 1.46737H9.48166L9.86818 3.39999C10.4026 3.60055 10.8994 3.88948 11.3381 4.25469L13.2108 3.64496L14.4956 5.82256L13.0148 7.12911C13.1155 7.69264 13.1155 8.26955 13.0148 8.83308L14.4956 10.1777L13.2108 12.3553Z" fill="#1D1D1D"/>
<path d="M8.19706 11.2698C7.55102 11.2698 6.9195 11.0782 6.38235 10.7193C5.84519 10.3604 5.42653 9.85023 5.1793 9.25338C4.93208 8.65652 4.86739 7.99976 4.99343 7.36614C5.11946 6.73252 5.43056 6.15051 5.88737 5.6937C6.34418 5.23688 6.9262 4.92579 7.55981 4.79976C8.19343 4.67372 8.85019 4.73841 9.44705 4.98563C10.0439 5.23286 10.554 5.65152 10.913 6.18867C11.2719 6.72583 11.4634 7.35735 11.4634 8.00338C11.4678 8.43355 11.3863 8.86026 11.2237 9.25853C11.0611 9.6568 10.8207 10.0186 10.5165 10.3228C10.2123 10.627 9.85047 10.8674 9.4522 11.03C9.05393 11.1926 8.62722 11.2741 8.19706 11.2698ZM8.19706 5.82579C7.90926 5.81909 7.62309 5.87083 7.35586 5.97789C7.08863 6.08495 6.8459 6.2451 6.64234 6.44866C6.43878 6.65222 6.27862 6.89496 6.17156 7.16219C6.0645 7.42942 6.01276 7.71558 6.01946 8.00338C6.01276 8.29118 6.0645 8.57735 6.17156 8.84458C6.27862 9.11181 6.43878 9.35454 6.64234 9.5581C6.8459 9.76166 7.08863 9.92182 7.35586 10.0289C7.62309 10.1359 7.90926 10.1877 8.19706 10.181C8.48485 10.1877 8.77102 10.1359 9.03825 10.0289C9.30548 9.92182 9.54821 9.76166 9.75177 9.5581C9.95533 9.35454 10.1155 9.11181 10.2225 8.84458C10.3296 8.57735 10.3814 8.29118 10.3746 8.00338C10.3814 7.71558 10.3296 7.42942 10.2225 7.16219C10.1155 6.89496 9.95533 6.65222 9.75177 6.44866C9.54821 6.2451 9.30548 6.08495 9.03825 5.97789C8.77102 5.87083 8.48485 5.81909 8.19706 5.82579Z" fill="#343741"/>
</g>
<defs>
<clipPath id="clip0_5413_9776">
<rect width="16" height="16" fill="white"/>
</clipPath>
</defs>
</svg>
