<?xml version="1.0" encoding="UTF-8"?>
<svg xmlns="http://www.w3.org/2000/svg" id="图层_1" data-name="图层 1" viewBox="0 0 616.31933 165.70758">
  <defs>
    <style>.cls-1{fill:#00b173;}</style>
  </defs>
  <path class="cls-1" d="M129.10221,20.19979H47.6381a3.65893,3.65893,0,1,1-.35872-7.30907q.17925-.00881.35872,0h81.46411a3.65893,3.65893,0,1,1,.35872,7.30907Q129.28168,20.2086,129.10221,20.19979Z"></path>
  <path class="cls-1" d="M106.85834,55.03005H27.8306a3.65894,3.65894,0,0,1,0-7.30908h79.02774a3.65894,3.65894,0,0,1,.35871,7.30908Q107.0378,55.03884,106.85834,55.03005Z"></path>
  <path class="cls-1" d="M149.39345,55.03005H126.80657a3.65894,3.65894,0,0,1-.35871-7.30908q.17925-.00879.35871,0h22.58688a3.65894,3.65894,0,0,1,0,7.30908Z"></path>
  <path class="cls-1" d="M149.39345,124.673H70.36574a3.65894,3.65894,0,0,1,0-7.30908h79.02774a3.65894,3.65894,0,0,1,0,7.30908Z"></path>
  <path class="cls-1" d="M50.42629,124.673H27.8306a3.65894,3.65894,0,0,1,0-7.30908H50.42629a3.65894,3.65894,0,0,1,0,7.30908Z"></path>
  <path class="cls-1" d="M129.10221,159.50322H47.6381a3.65894,3.65894,0,1,1,0-7.31788h81.46411a3.65894,3.65894,0,0,1,0,7.31788Z"></path>
  <path class="cls-1" d="M169.12182,89.8515H7.83837a3.65893,3.65893,0,0,1-.35871-7.30907q.17925-.0088.35871,0H169.12182a3.65893,3.65893,0,1,1,.35872,7.30907Q169.30129,89.86031,169.12182,89.8515Z"></path>
  <path class="cls-1" d="M225.44952,92.50039a29.92571,29.92571,0,0,0,1.582,8.81445,18.14447,18.14447,0,0,0,3.60156,6.17969,14.00823,14.00823,0,0,0,5.38867,3.66114,19.4246,19.4246,0,0,0,7,1.20019,21.3264,21.3264,0,0,0,6.38379-.84863,30.01039,30.01039,0,0,0,4.68653-1.875q1.99071-1.02393,3.39648-1.874a5.08121,5.08121,0,0,1,2.57715-.84961,2.69021,2.69021,0,0,1,2.34375,1.17188l3.57226,4.62695a22.65724,22.65724,0,0,1-5.03711,4.45215,29.31219,29.31219,0,0,1-5.97461,2.957,33.73415,33.73415,0,0,1-6.501,1.64063,44.18752,44.18752,0,0,1-6.502.498,31.25335,31.25335,0,0,1-11.50977-2.08007,25.55981,25.55981,0,0,1-9.19531-6.12012,28.23837,28.23837,0,0,1-6.0918-10.0166,39.75181,39.75181,0,0,1-2.19629-13.76465,33.62678,33.62678,0,0,1,1.96192-11.59668,27.65081,27.65081,0,0,1,5.623-9.37207,26.39733,26.39733,0,0,1,8.90332-6.29688,29.08785,29.08785,0,0,1,11.86035-2.31347A28.40015,28.40015,0,0,1,251.515,62.48086a22.37828,22.37828,0,0,1,8.083,5.24316,24.13281,24.13281,0,0,1,5.30079,8.4629,31.91576,31.91576,0,0,1,1.90332,11.39257,8.03473,8.03473,0,0,1-.64454,3.92481,2.57719,2.57719,0,0,1-2.34277.99609ZM255.49737,84.768a18.49386,18.49386,0,0,0-.9082-5.88574,13.77941,13.77941,0,0,0-2.665-4.74512,12.15879,12.15879,0,0,0-4.36328-3.16309,14.85015,14.85015,0,0,0-6.00391-1.1416q-6.85254,0-10.77734,3.92383Q226.85527,77.682,225.80108,84.768Z"></path>
  <path class="cls-1" d="M292.98467,73.1127h3.92383a9.13775,9.13775,0,0,0,3.63184-.61524,6.81929,6.81929,0,0,0,2.51855-1.96191l25.53809-30.458a8.01773,8.01773,0,0,1,2.78222-2.37207,8.46426,8.46426,0,0,1,3.60157-.67383h11.71484L316.53057,72.644a21.903,21.903,0,0,1-2.37207,2.54785,10.47449,10.47449,0,0,1-2.48926,1.66894,10.991,10.991,0,0,1,3.16309,1.78711,15.5923,15.5923,0,0,1,2.75293,3.01563l31.27734,39.71289H336.91436a11.76206,11.76206,0,0,1-2.19726-.17578,5.76987,5.76987,0,0,1-1.58106-.52735,4.40705,4.40705,0,0,1-1.17187-.87793,7.72788,7.72788,0,0,1-.90723-1.17187l-26.3584-32.21485a9.74547,9.74547,0,0,0-1.1709-1.28906,5.16388,5.16388,0,0,0-1.377-.87793,6.83752,6.83752,0,0,0-1.78613-.498,16.32908,16.32908,0,0,0-2.34278-.14649h-5.03711v37.7793H279.27862V37.03164h13.70605Z"></path>
  <path class="cls-1" d="M403.33624,61.63223v59.74414H395.721a3.05593,3.05593,0,0,1-3.2207-2.40137l-.9375-5.56445a36.28425,36.28425,0,0,1-3.9541,3.63183,25.68953,25.68953,0,0,1-4.42188,2.81153,23.51812,23.51812,0,0,1-5.00781,1.81543,24.3057,24.3057,0,0,1-5.71094.64453,21.46317,21.46317,0,0,1-8.66894-1.64063,17.21764,17.21764,0,0,1-6.29688-4.627,19.92582,19.92582,0,0,1-3.83594-7.1748,31.25415,31.25415,0,0,1-1.28906-9.22559V61.63223H364.971V99.6459q0,6.03369,2.78223,9.37207,2.78027,3.33839,8.46289,3.33789a16.35847,16.35847,0,0,0,7.76172-1.90332,26.23553,26.23553,0,0,0,6.76465-5.24219V61.63223Z"></path>
  <path class="cls-1" d="M433.91045,43.59121a7.88361,7.88361,0,0,1-.67382,3.22168,8.47024,8.47024,0,0,1-1.84473,2.665,9.01056,9.01056,0,0,1-2.72363,1.81641,8.22369,8.22369,0,0,1-3.30957.67285,7.6722,7.6722,0,0,1-3.19239-.67285,8.44154,8.44154,0,0,1-2.60644-1.81641,8.95761,8.95761,0,0,1-1.78613-2.665,7.85182,7.85182,0,0,1-.67383-3.22168,7.99815,7.99815,0,0,1,.67383-3.27929,8.95761,8.95761,0,0,1,1.78613-2.665,8.44154,8.44154,0,0,1,2.60644-1.81641,7.68834,7.68834,0,0,1,3.19239-.67383,8.241,8.241,0,0,1,3.30957.67383,9.01056,9.01056,0,0,1,2.72363,1.81641,8.47024,8.47024,0,0,1,1.84473,2.665A8.03,8.03,0,0,1,433.91045,43.59121Zm-2.10937,18.041v59.74414H419.20831V61.63223Z"></path>
  <path class="cls-1" d="M459.62335,70.30117a31.53873,31.53873,0,0,1,8.52246-7.08789A22.19881,22.19881,0,0,1,479.24542,60.519a20.393,20.393,0,0,1,9.13671,2.0205,19.67713,19.67713,0,0,1,7.0293,5.88672,28.5299,28.5299,0,0,1,4.53906,9.57715,48.35352,48.35352,0,0,1,1.61133,13.09082,41.11371,41.11371,0,0,1-1.78711,12.33008,30.13029,30.13029,0,0,1-5.125,9.89844,23.89386,23.89386,0,0,1-8.083,6.56054,23.64645,23.64645,0,0,1-10.71875,2.37207,21.12736,21.12736,0,0,1-8.93261-1.69921,23.11423,23.11423,0,0,1-6.64746-4.68555v25.3623H447.67413V61.63223h7.61425a3.09492,3.09492,0,0,1,3.28028,2.40136Zm.64453,36.08008a15.12134,15.12134,0,0,0,5.76953,4.77442,17.05964,17.05964,0,0,0,6.94043,1.376q7.37988,0,11.50976-5.38867,4.12939-5.3877,4.12891-16.04883a40.79192,40.79192,0,0,0-.93652-9.40137,18.20234,18.20234,0,0,0-2.69434-6.35449,10.3887,10.3887,0,0,0-4.27637-3.57324,13.93173,13.93173,0,0,0-5.68164-1.1123,15.88327,15.88327,0,0,0-8.28808,2.0791,23.5293,23.5293,0,0,0-6.47168,5.94531Z"></path>
  <path class="cls-1" d="M522.94073,92.50039a29.95949,29.95949,0,0,0,1.58105,8.81445,18.162,18.162,0,0,0,3.60254,6.17969,14.0009,14.0009,0,0,0,5.38867,3.66114,19.41923,19.41923,0,0,0,6.999,1.20019,21.33313,21.33313,0,0,0,6.38476-.84863,29.95765,29.95765,0,0,0,4.68555-1.875q1.99073-1.02393,3.39746-1.874a5.08121,5.08121,0,0,1,2.57715-.84961,2.68735,2.68735,0,0,1,2.34277,1.17188l3.57324,4.62695a22.65742,22.65742,0,0,1-5.0371,4.45215,29.3377,29.3377,0,0,1-5.97461,2.957,33.72573,33.72573,0,0,1-6.502,1.64063,44.17441,44.17441,0,0,1-6.501.498,31.24963,31.24963,0,0,1-11.50977-2.08007,25.572,25.572,0,0,1-9.19629-6.12012,28.25061,28.25061,0,0,1-6.09082-10.0166,39.75112,39.75112,0,0,1-2.19726-13.76465,33.62709,33.62709,0,0,1,1.96289-11.59668,27.65081,27.65081,0,0,1,5.623-9.37207,26.39325,26.39325,0,0,1,8.90235-6.29688,29.0958,29.0958,0,0,1,11.86132-2.31347,28.391,28.391,0,0,1,10.19141,1.78613,22.36171,22.36171,0,0,1,8.083,5.24316,24.10473,24.10473,0,0,1,5.30078,8.4629,31.91537,31.91537,0,0,1,1.9043,11.39257,8.03488,8.03488,0,0,1-.64453,3.92481,2.57722,2.57722,0,0,1-2.34278.99609ZM552.98858,84.768a18.49358,18.49358,0,0,0-.9082-5.88574,13.77941,13.77941,0,0,0-2.665-4.74512,12.15879,12.15879,0,0,0-4.36328-3.16309,14.85015,14.85015,0,0,0-6.00391-1.1416q-6.85254,0-10.77734,3.92383Q524.3465,77.682,523.29229,84.768Z"></path>
  <path class="cls-1" d="M587.89678,72.70254a26.42112,26.42112,0,0,1,6.79395-8.93262,14.62243,14.62243,0,0,1,9.54785-3.251,14.469,14.469,0,0,1,3.63184.43945,10.21233,10.21233,0,0,1,3.04492,1.31836l-.87793,9.48828a2.362,2.362,0,0,1-.73242,1.377,2.11266,2.11266,0,0,1-1.31739.37989,14.10826,14.10826,0,0,1-2.51953-.32129,17.889,17.889,0,0,0-3.45508-.32227,13.17921,13.17921,0,0,0-4.65722.76074,11.28113,11.28113,0,0,0-3.63086,2.22657,14.965,14.965,0,0,0-2.84082,3.57226,34.40359,34.40359,0,0,0-2.28418,4.80371v37.13477H576.00616V61.63223h7.32226a3.98051,3.98051,0,0,1,2.75293.73242,4.50584,4.50584,0,0,1,1.05371,2.54785Z"></path>
</svg> 