<?xml version="1.0" encoding="utf-8"?>
<svg viewBox="0 0 606 242.4" xmlns="http://www.w3.org/2000/svg" xmlns:bx="https://boxy-svg.com">
  <path class="cls-1" d="M 126.681 56.813 L 46.145 56.813 C 43.364 56.951 41.478 53.992 42.751 51.488 C 43.342 50.325 44.5 49.569 45.791 49.505 C 45.909 49.499 46.028 49.499 46.145 49.505 L 126.681 49.505 C 129.462 49.367 131.349 52.326 130.076 54.83 C 129.485 55.993 128.326 56.749 127.035 56.813 C 126.918 56.819 126.799 56.819 126.681 56.813 Z" style="fill: rgb(0, 177, 115);" bx:origin="6.400494 26.41802"/>
  <path class="cls-1" d="M 104.691 91.639 L 26.564 91.639 C 23.783 91.501 22.193 88.369 23.701 86.003 C 24.333 85.012 25.4 84.389 26.564 84.331 L 104.691 84.331 C 107.472 84.196 109.355 87.157 108.081 89.661 C 107.491 90.821 106.334 91.574 105.045 91.639 C 104.927 91.645 104.809 91.645 104.691 91.639 Z" style="fill: rgb(0, 177, 115);" bx:origin="6.833233 21.659617"/>
  <path class="cls-1" d="M 146.741 91.639 L 124.412 91.639 C 121.631 91.775 119.746 88.815 121.022 86.311 C 121.612 85.151 122.768 84.396 124.057 84.331 C 124.175 84.325 124.293 84.325 124.412 84.331 L 146.741 84.331 C 149.522 84.469 151.113 87.601 149.604 89.967 C 148.971 90.959 147.906 91.581 146.741 91.639 Z" style="fill: rgb(0, 177, 115);" bx:origin="16.429562 21.659442"/>
  <path class="cls-1" d="M 146.741 161.274 L 68.614 161.274 C 65.833 161.136 64.243 158.005 65.751 155.638 C 66.384 154.646 67.45 154.024 68.614 153.966 L 146.741 153.966 C 149.522 154.104 151.113 157.236 149.604 159.602 C 148.971 160.594 147.906 161.216 146.741 161.274 Z" style="fill: rgb(0, 177, 115);" bx:origin="6.366869 12.156954"/>
  <path class="cls-1" d="M 48.903 161.274 L 26.564 161.274 C 23.783 161.136 22.193 158.005 23.701 155.638 C 24.333 154.646 25.4 154.024 26.564 153.966 L 48.903 153.966 C 51.683 154.104 53.274 157.236 51.765 159.602 C 51.133 160.594 50.067 161.216 48.903 161.274 Z" style="fill: rgb(0, 177, 115);" bx:origin="19.958419 12.156954"/>
  <path class="cls-1" d="M 126.681 196.1 L 46.145 196.1 C 43.361 196.1 41.621 193.052 43.013 190.613 C 43.659 189.481 44.853 188.784 46.145 188.784 L 126.681 188.784 C 129.465 188.784 131.206 191.833 129.813 194.272 C 129.168 195.403 127.973 196.1 126.681 196.1 Z" style="fill: rgb(0, 177, 115);" bx:origin="6.424418 7.384505"/>
  <path class="cls-1" d="M 166.244 126.457 L 6.8 126.457 C 4.018 126.595 2.133 123.636 3.405 121.131 C 3.996 119.969 5.154 119.213 6.445 119.149 C 6.564 119.143 6.682 119.143 6.8 119.149 L 166.244 119.149 C 169.025 119.011 170.911 121.97 169.639 124.475 C 169.049 125.638 167.89 126.393 166.599 126.457 C 166.48 126.463 166.363 126.463 166.244 126.457 Z" style="fill: rgb(0, 177, 115);" bx:origin="3.612576 16.90028"/>
  <path class="cls-1" d="M 221.93 129.106 C 222.011 132.106 222.538 135.077 223.494 137.919 C 224.263 140.198 225.474 142.297 227.054 144.098 C 228.521 145.725 230.346 146.979 232.381 147.759 C 234.596 148.586 236.942 148.993 239.301 148.959 C 241.436 149.001 243.563 148.715 245.612 148.11 C 247.206 147.618 248.756 146.991 250.245 146.235 C 251.558 145.553 252.677 144.928 253.603 144.361 C 254.361 143.85 255.241 143.556 256.151 143.512 C 257.072 143.47 257.948 143.913 258.468 144.685 L 261.999 149.311 C 260.568 151.037 258.889 152.537 257.02 153.762 C 255.168 154.971 253.187 155.964 251.113 156.719 C 249.03 157.48 246.877 158.03 244.686 158.359 C 242.559 158.685 240.41 158.852 238.258 158.857 C 234.37 158.894 230.51 158.189 226.881 156.777 C 223.445 155.432 220.343 153.343 217.789 150.658 C 215.111 147.782 213.06 144.371 211.767 140.643 C 210.247 136.22 209.513 131.561 209.596 126.879 C 209.564 122.929 210.221 119.004 211.536 115.284 C 212.754 111.817 214.644 108.631 217.094 105.913 C 219.563 103.218 222.561 101.073 225.896 99.617 C 229.601 98.025 233.596 97.236 237.622 97.303 C 241.06 97.27 244.476 97.876 247.697 99.09 C 250.706 100.229 253.433 102.018 255.688 104.332 C 258 106.752 259.785 109.634 260.929 112.794 C 262.236 116.443 262.873 120.304 262.81 124.186 C 262.927 125.526 262.707 126.876 262.173 128.11 C 261.629 128.831 260.749 129.209 259.857 129.106 L 221.93 129.106 Z M 251.635 121.374 C 251.652 119.376 251.348 117.388 250.737 115.489 C 250.179 113.746 249.283 112.133 248.103 110.744 C 246.916 109.377 245.442 108.297 243.789 107.581 C 241.91 106.79 239.889 106.401 237.853 106.441 C 233.337 106.441 229.786 107.749 227.199 110.364 C 224.613 112.981 222.972 116.65 222.277 121.374 L 251.635 121.374 Z" style="fill: rgb(0, 177, 115);" bx:origin="7.452836 2.363735"/>
  <path class="cls-1" d="M 288.695 109.72 L 292.574 109.72 C 293.8 109.764 295.021 109.554 296.164 109.105 C 297.136 108.659 297.989 107.988 298.654 107.143 L 323.9 76.689 C 324.625 75.694 325.566 74.883 326.652 74.317 C 327.775 73.832 328.991 73.602 330.212 73.643 L 341.793 73.643 L 311.972 109.251 C 311.258 110.162 310.474 111.014 309.627 111.799 C 308.89 112.472 308.061 113.034 307.166 113.468 C 308.299 113.884 309.356 114.488 310.293 115.255 C 311.327 116.135 312.242 117.148 313.015 118.27 L 343.935 157.979 L 332.124 157.979 C 331.395 157.989 330.668 157.93 329.951 157.803 C 329.408 157.705 328.881 157.527 328.388 157.276 C 327.957 157.05 327.564 156.754 327.23 156.398 C 326.894 156.037 326.593 155.645 326.332 155.226 L 300.275 123.015 C 299.928 122.551 299.54 122.12 299.117 121.726 C 298.712 121.362 298.253 121.066 297.756 120.848 C 297.193 120.602 296.598 120.434 295.99 120.35 C 295.222 120.245 294.449 120.196 293.674 120.203 L 288.695 120.203 L 288.695 157.979 L 275.145 157.979 L 275.145 73.643 L 288.695 73.643 L 288.695 109.72 Z" style="fill: rgb(0, 177, 115);" bx:origin="4.816325 2.005776"/>
  <path class="cls-1" d="M 397.788 98.24 L 397.788 157.979 L 390.259 157.979 C 388.754 158.095 387.394 157.07 387.076 155.577 L 386.148 150.014 C 384.936 151.319 383.629 152.533 382.24 153.646 C 380.881 154.73 379.416 155.672 377.868 156.456 C 376.291 157.249 374.63 157.858 372.917 158.272 C 371.067 158.712 369.172 158.928 367.271 158.916 C 364.333 158.974 361.415 158.417 358.701 157.275 C 356.304 156.236 354.173 154.653 352.477 152.649 C 350.738 150.547 349.447 148.105 348.685 145.475 C 347.807 142.481 347.377 139.372 347.41 136.25 L 347.41 98.24 L 359.86 98.24 L 359.86 136.25 C 359.86 140.273 360.777 143.396 362.611 145.621 C 364.443 147.847 367.232 148.959 370.976 148.959 C 373.651 148.976 376.287 148.322 378.65 147.056 C 381.148 145.69 383.407 143.919 385.338 141.815 L 385.338 98.24 L 397.788 98.24 Z" style="fill: rgb(0, 177, 115);" bx:origin="5.141981 2.382478"/>
  <path class="cls-1" d="M 428.014 80.201 C 428.017 81.311 427.791 82.409 427.347 83.423 C 426.914 84.422 426.295 85.327 425.523 86.088 C 424.743 86.855 423.831 87.47 422.831 87.905 C 421.798 88.355 420.684 88.584 419.559 88.576 C 418.472 88.584 417.395 88.355 416.403 87.905 C 415.439 87.469 414.564 86.853 413.826 86.088 C 413.084 85.315 412.486 84.412 412.061 83.423 C 411.616 82.409 411.389 81.311 411.394 80.201 C 411.385 79.074 411.613 77.956 412.061 76.923 C 412.486 75.935 413.084 75.032 413.826 74.258 C 414.564 73.493 415.439 72.877 416.403 72.442 C 417.395 71.992 418.472 71.763 419.559 71.769 C 420.684 71.763 421.798 71.992 422.831 72.442 C 423.831 72.876 424.743 73.491 425.523 74.258 C 426.295 75.019 426.914 75.924 427.347 76.923 C 427.794 77.957 428.021 79.074 428.014 80.201 Z M 425.928 98.24 L 425.928 157.979 L 413.479 157.979 L 413.479 98.24 L 425.928 98.24 Z" style="fill: rgb(0, 177, 115);" bx:origin="11.736563 1.983991"/>
  <path class="cls-1" d="M 453.433 106.909 C 455.806 104.062 458.658 101.662 461.858 99.823 C 465.221 97.972 469.004 97.043 472.832 97.128 C 475.956 97.084 479.049 97.776 481.863 99.148 C 484.606 100.529 486.987 102.546 488.813 105.034 C 490.887 107.914 492.409 111.163 493.3 114.611 C 494.42 118.879 494.956 123.284 494.893 127.699 C 494.927 131.876 494.332 136.033 493.126 140.029 C 492.061 143.617 490.343 146.974 488.06 149.926 C 485.906 152.679 483.177 154.919 480.069 156.485 C 476.77 158.106 473.14 158.919 469.472 158.858 C 466.442 158.946 463.429 158.366 460.642 157.158 C 458.194 156.002 455.97 154.415 454.07 152.473 L 454.07 177.833 L 441.62 177.833 L 441.62 98.24 L 449.148 98.24 C 450.669 98.11 452.053 99.135 452.39 100.642 L 453.433 106.909 Z M 454.07 142.985 C 455.546 145.035 457.507 146.676 459.774 147.759 C 461.941 148.698 464.278 149.166 466.635 149.135 C 471.499 149.135 475.292 147.339 478.014 143.746 C 480.735 140.155 482.096 134.806 482.096 127.699 C 482.148 124.541 481.838 121.386 481.169 118.299 C 480.691 116.029 479.786 113.872 478.506 111.946 C 477.445 110.387 475.983 109.152 474.279 108.372 C 472.504 107.608 470.59 107.229 468.662 107.261 C 465.794 107.184 462.96 107.903 460.468 109.339 C 457.985 110.897 455.815 112.914 454.07 115.284 L 454.07 142.985 Z" style="fill: rgb(0, 177, 115);" bx:origin="3.093961 1.805052"/>
  <path class="cls-1" d="M 516.028 129.106 C 516.11 132.106 516.637 135.077 517.591 137.919 C 518.361 140.197 519.572 142.297 521.153 144.098 C 522.619 145.725 524.444 146.979 526.48 147.759 C 528.694 148.586 531.039 148.993 533.399 148.959 C 535.533 149.001 537.662 148.715 539.711 148.11 C 541.305 147.618 542.854 146.991 544.344 146.235 C 545.656 145.553 546.775 144.928 547.702 144.361 C 548.459 143.85 549.34 143.556 550.25 143.512 C 551.171 143.47 552.047 143.913 552.566 144.685 L 556.098 149.311 C 554.667 151.037 552.988 152.537 551.118 153.762 C 549.267 154.971 547.286 155.963 545.213 156.719 C 543.129 157.48 540.975 158.03 538.785 158.359 C 536.657 158.685 534.509 158.852 532.358 158.857 C 528.469 158.894 524.608 158.189 520.979 156.777 C 517.544 155.432 514.441 153.343 511.888 150.658 C 509.21 147.782 507.159 144.371 505.866 140.643 C 504.346 136.22 503.61 131.561 503.694 126.879 C 503.662 122.929 504.319 119.004 505.634 115.284 C 506.852 111.817 508.742 108.631 511.193 105.913 C 513.662 103.218 516.659 101.073 519.995 99.617 C 523.7 98.025 527.695 97.236 531.72 97.303 C 535.159 97.27 538.573 97.875 541.795 99.09 C 544.804 100.229 547.531 102.018 549.786 104.332 C 552.098 106.752 553.883 109.634 555.026 112.794 C 556.334 116.443 556.972 120.304 556.909 124.186 C 557.025 125.526 556.806 126.876 556.272 128.109 C 555.727 128.831 554.847 129.209 553.956 129.106 L 516.028 129.106 Z M 545.734 121.374 C 545.75 119.376 545.447 117.388 544.836 115.489 C 544.278 113.746 543.383 112.133 542.201 110.744 C 541.015 109.377 539.541 108.297 537.887 107.581 C 536.009 106.79 533.987 106.401 531.953 106.441 C 527.436 106.441 523.885 107.749 521.297 110.364 C 518.711 112.981 517.07 116.65 516.376 121.374 L 545.734 121.374 Z" style="fill: rgb(0, 177, 115);" bx:origin="1.92994 2.363735"/>
  <path class="cls-1" d="M 580.244 109.311 C 581.824 105.881 584.115 102.835 586.96 100.378 C 589.625 98.196 592.971 97.044 596.399 97.128 C 597.609 97.12 598.816 97.267 599.99 97.568 C 601.057 97.837 602.074 98.283 603 98.885 L 602.132 108.372 C 602.052 108.901 601.796 109.386 601.407 109.749 C 601.028 110.019 600.569 110.152 600.105 110.129 C 599.267 110.098 598.434 109.99 597.614 109.808 C 596.489 109.589 595.345 109.481 594.199 109.487 C 592.632 109.457 591.072 109.715 589.595 110.246 C 588.269 110.751 587.051 111.507 586.005 112.473 C 584.894 113.511 583.947 114.716 583.196 116.044 C 582.323 117.584 581.568 119.19 580.939 120.848 L 580.939 157.979 L 568.489 157.979 L 568.489 98.24 L 575.728 98.24 C 576.693 98.138 577.662 98.399 578.449 98.973 C 579.051 99.691 579.415 100.582 579.49 101.521 L 580.244 109.311 Z" style="fill: rgb(0, 177, 115);" bx:origin="1.100259 2.393963"/>
</svg>