<?xml version="1.0" encoding="utf-8"?>
<svg viewBox="-153.618 116.818 600 240" xmlns="http://www.w3.org/2000/svg">
  <path class="st0" d="M 13.829 238.468 C 13.829 201.968 -17.171 172.368 -55.471 172.368 C -93.771 172.368 -124.771 201.968 -124.771 238.468 C -124.771 274.968 -93.771 304.568 -55.471 304.568 C -17.171 304.468 13.829 274.968 13.829 238.468" style="fill: rgb(244, 149, 0);"/>
  <path class="st1" d="M -48.271 166.968 C -48.271 181.168 -59.771 192.768 -74.071 192.768 C -88.271 192.768 -99.871 181.268 -99.871 166.968 C -99.871 152.768 -88.371 141.168 -74.071 141.168 C -59.871 141.168 -48.271 152.768 -48.271 166.968" style="fill: rgb(252, 192, 0);"/>
  <path class="st1" d="M 23.329 188.868 C 23.329 203.068 11.829 214.668 -2.471 214.668 C -16.671 214.668 -28.271 203.168 -28.271 188.868 C -28.271 174.668 -16.771 163.068 -2.471 163.068 C 11.829 163.068 23.329 174.668 23.329 188.868" style="fill: rgb(252, 192, 0);"/>
  <path class="st1" d="M 47.929 256.868 C 47.929 271.068 36.429 282.668 22.129 282.668 C 7.929 282.668 -3.671 271.168 -3.671 256.868 C -3.671 242.668 7.829 231.068 22.129 231.068 C 36.429 231.168 47.929 242.668 47.929 256.868" style="fill: rgb(252, 192, 0);"/>
  <path class="st1" d="M -6.671 306.668 C -6.671 320.868 -18.171 332.468 -32.471 332.468 C -46.671 332.468 -58.271 320.968 -58.271 306.668 C -58.271 292.468 -46.771 280.868 -32.471 280.868 C -18.271 280.868 -6.671 292.368 -6.671 306.668" style="fill: rgb(252, 192, 0);"/>
  <path class="st1" d="M -81.271 288.768 C -81.271 302.968 -92.771 314.568 -107.071 314.568 C -121.271 314.568 -132.871 303.068 -132.871 288.768 C -132.871 274.568 -121.371 262.968 -107.071 262.968 C -92.871 262.968 -81.271 274.568 -81.271 288.768" style="fill: rgb(252, 192, 0);"/>
  <path class="st1" d="M -102.071 218.468 C -102.071 232.668 -113.571 244.268 -127.871 244.268 C -142.071 244.268 -153.671 232.768 -153.671 218.468 C -153.671 204.268 -142.171 192.668 -127.871 192.668 C -113.671 192.668 -102.071 204.268 -102.071 218.468" style="fill: rgb(252, 192, 0);"/>
  <polygon class="st2" points="-50.271 223.369 -52.171 216.767 -56.171 224.369 -70.471 174.968 -63.271 179.168 -65.071 172.869 -75.071 167.369 -80.671 177.369 -78.771 183.668 -74.971 176.267 -60.571 225.668 -67.971 221.369 -66.071 227.968 -55.971 233.369" style="fill: rgb(3, 162, 57);"/>
  <polygon class="st2" points="-37.871 235.468 -33.471 231.369 -41.471 230.767 -7.871 199.668 -7.871 207.468 -3.671 203.569 -3.871 192.668 -14.671 191.668 -18.871 195.668 -11.071 196.168 -44.671 227.369 -44.571 219.267 -49.071 223.468 -48.771 234.369" style="fill: rgb(3, 162, 57);"/>
  <polygon class="st2" points="-93.471 288.768 -88.971 284.268 -97.171 284.069 -63.471 250.869 -63.371 258.869 -59.071 254.668 -59.371 243.569 -70.471 243.069 -74.671 247.267 -66.771 247.468 -100.471 280.768 -100.571 272.569 -105.071 276.967 -104.571 288.069" style="fill: rgb(3, 162, 57);"/>
  <polygon class="st2" points="-66.871 227.569 -73.271 225.569 -69.171 232.968 -117.471 218.168 -110.171 214.369 -116.271 212.468 -126.271 217.869 -120.971 227.968 -114.871 229.869 -118.771 222.668 -70.571 237.468 -78.071 241.267 -71.671 243.267 -61.671 237.767" style="fill: rgb(3, 162, 57);"/>
  <polygon class="st2" points="-27.671 294.268 -29.671 288.367 -33.471 295.569 -48.171 251.369 -40.971 254.668 -42.871 249.069 -52.971 244.668 -58.271 254.168 -56.371 259.769 -52.671 252.869 -37.871 297.069 -45.271 293.569 -43.271 299.467 -33.171 303.867" style="fill: rgb(3, 162, 57);"/>
  <polygon class="st2" points="8.029 247.968 2.029 246.168 5.729 253.468 -39.071 240.468 -32.271 236.468 -37.871 234.869 -47.271 240.569 -42.371 250.369 -36.771 252.069 -40.371 244.968 4.429 257.869 -2.571 261.967 3.429 263.768 12.729 257.869" style="fill: rgb(3, 162, 57);"/>
  <polygon class="st3" points="-45.971 272.867 -31.771 202.168 0.629 202.168 15.229 244.668 46.929 202.168 79.429 202.168 65.029 272.867 45.029 272.867 54.829 222.869 17.729 272.867 2.029 272.867 -15.671 222.968 -25.471 272.867" style="fill: rgb(17, 146, 207);"/>
  <path class="st3" d="M 144.529 226.168 C 141.729 223.368 131.929 222.168 120.529 222.168 C 102.729 222.168 93.929 225.068 88.629 230.368 C 83.329 235.668 80.729 255.668 80.729 257.868 C 80.729 259.968 79.929 265.668 83.829 269.568 C 87.729 273.468 97.129 273.768 111.629 273.768 C 126.129 273.768 134.129 271.268 139.529 267.568 C 144.929 263.968 148.129 244.868 148.729 238.968 C 149.229 232.968 147.329 228.868 144.529 226.168 M 130.329 248.468 C 128.829 253.768 128.229 255.968 126.429 257.268 C 124.629 258.568 115.429 259.468 113.429 259.468 C 111.429 259.468 101.629 259.268 99.629 257.268 C 97.629 255.268 100.629 240.368 103.529 238.768 C 106.429 237.168 112.429 236.668 116.729 236.768 C 123.329 236.868 128.329 237.068 129.729 238.468 C 131.129 240.068 131.829 243.168 130.329 248.468" style="fill: rgb(17, 146, 207);"/>
  <path class="st3" d="M 213.429 202.168 L 207.929 230.268 C 205.329 224.068 200.429 222.168 189.929 222.168 C 172.129 222.168 169.029 225.068 163.729 230.368 C 158.429 235.668 155.829 255.668 155.829 257.868 C 155.829 259.968 155.029 265.668 158.929 269.568 C 162.829 273.468 165.929 273.768 180.029 273.768 C 193.629 273.768 198.529 269.168 200.929 266.068 L 199.629 272.868 L 217.429 272.868 L 231.229 202.168 L 213.429 202.168 Z M 200.429 257.368 C 198.629 258.668 189.429 259.568 187.329 259.568 C 185.229 259.568 175.529 259.368 173.529 257.368 C 171.529 255.368 174.529 240.468 177.429 238.868 C 180.329 237.268 186.329 236.768 190.629 236.868 C 197.229 236.968 202.229 237.168 203.729 238.568 C 204.629 239.468 205.229 241.168 205.129 243.668 L 203.929 249.568 C 202.729 254.168 202.129 256.168 200.429 257.368" style="fill: rgb(17, 146, 207);"/>
  <path class="st3" d="M 296.729 225.168 C 294.529 223.268 288.929 222.168 278.329 222.168 C 265.029 222.168 259.529 224.868 255.329 230.568 L 260.829 202.268 L 243.429 202.268 L 229.429 272.868 L 247.129 272.868 L 248.529 265.668 C 250.629 270.568 253.829 273.768 268.529 273.768 C 283.029 273.768 286.929 273.068 291.529 268.368 C 296.429 263.468 300.229 244.968 300.729 238.968 C 301.229 233.068 300.429 228.268 296.729 225.168 M 282.829 248.468 C 281.329 253.768 280.729 255.968 278.929 257.268 C 277.129 258.568 267.929 259.468 265.929 259.468 C 263.929 259.468 254.129 259.268 252.129 257.268 C 250.129 255.268 253.129 240.368 256.029 238.768 C 258.929 237.168 264.929 236.668 269.229 236.768 C 275.829 236.868 280.829 237.068 282.229 238.468 C 283.729 240.068 284.329 243.168 282.829 248.468" style="fill: rgb(17, 146, 207);"/>
  <path class="st3" d="M 360.629 222.768 L 359.929 222.768 C 359.929 222.768 355.229 250.268 350.929 254.568 C 346.629 258.868 340.329 259.168 338.129 259.168 C 336.029 259.168 329.929 258.268 327.729 256.068 C 325.029 253.268 330.929 227.368 332.029 222.768 L 314.729 222.768 C 314.729 222.768 307.729 254.468 307.729 259.368 C 307.729 263.268 308.129 270.468 318.929 272.968 C 321.429 273.568 324.429 273.868 328.129 273.868 C 331.029 273.868 333.729 273.568 336.129 272.968 C 344.529 270.968 349.829 266.168 352.729 262.568 L 350.729 272.968 L 367.229 272.968 L 377.029 222.868 L 360.629 222.868 L 360.629 222.768 Z" style="fill: rgb(17, 146, 207);"/>
  <path class="st3" d="M 430.029 238.368 L 446.129 238.368 C 446.129 238.368 446.429 234.468 446.429 232.868 C 446.429 231.168 446.729 228.968 443.329 225.568 C 439.929 222.168 421.529 222.268 418.429 222.268 C 415.329 222.268 398.629 221.968 393.929 225.868 C 389.929 229.068 386.629 233.268 386.629 241.468 C 386.629 249.768 392.129 252.968 403.029 252.968 L 422.529 252.968 C 425.229 252.968 428.629 253.768 428.629 256.268 C 428.629 258.768 426.729 262.168 419.929 262.168 L 407.029 262.168 C 403.929 262.168 398.329 261.668 398.329 258.168 L 398.329 256.568 L 382.229 256.568 C 382.229 256.568 381.429 259.368 381.429 261.768 C 381.429 264.168 381.829 267.268 384.529 269.968 C 387.229 272.668 398.529 273.868 410.129 273.868 C 421.729 273.868 434.229 273.368 438.429 269.068 C 442.729 264.768 444.629 256.768 444.629 252.568 C 444.629 248.368 443.229 246.368 441.829 244.968 C 440.529 243.668 436.529 241.268 418.829 241.268 C 403.029 241.268 402.529 239.768 402.529 238.268 C 402.529 237.068 402.729 234.068 415.229 234.068 C 427.729 233.968 430.029 234.568 430.029 238.368" style="fill: rgb(17, 146, 207);"/>
</svg>